<svg 
  class="offer__item-icon" 
  xmlns="http://www.w3.org/2000/svg" 
  viewBox="-459 301 160 160" role="img" 
  preserveAspectRatio="xMidYMid meet"
  alt="offer icon">
    <g><path d="M-393.6 414.3H-416c-4.6 0-8.3-4.3-8.3-9.5l-.3-36.1c0-5.3 3.6-9.5 8.1-9.5h49.4c2.8 0 5.4 1.7 6.9 4.5h.3c4.5 0 8.1 2.7 8.1 6.1v10.6c0 3.3-3.3 6-7.7 6.1-1.2 3.6-4.2 6.2-7.6 6.2h-18.3v12.1c.1 5.3-3.7 9.5-8.2 9.5zm-22.9-51.8c-2.6 0-4.8 2.8-4.8 6.2l.3 36.1c0 3.4 2.2 6.2 5 6.2h22.3c2.7 0 5-2.8 5-6.2V391c0-.9.7-1.7 1.7-1.7h20c2.2 0 4.1-2 4.6-4.8.1-.8.8-1.4 1.6-1.4h.9c2.8 0 4.7-1.5 4.7-2.8v-10.6c0-1.3-1.9-2.8-4.7-2.8h-1.4c-.7 0-1.3-.4-1.6-1.1-.8-2.1-2.5-3.4-4.3-3.4h-49.3z"></path>
        <path d="M-398.3 405.6h-12.9c-3 0-5.5-2.2-5.5-4.9v-7.4c0-2.7 2.5-4.9 5.5-4.9h12.9c3 0 5.5 2.2 5.5 4.9v7.4c0 2.7-2.5 4.9-5.5 4.9zm-13-13.8c-1.2 0-2.2.7-2.2 1.6v7.4c0 .8 1 1.6 2.2 1.6h12.9c1.2 0 2.2-.7 2.2-1.6v-7.4c0-.8-1-1.6-2.2-1.6h-12.9z"></path>
        <path d="M-398.7 370.8h-12.7c-.9 0-1.7-.7-1.7-1.7 0-.9.7-1.7 1.7-1.7h12.7c.9 0 1.7.7 1.7 1.7 0 .9-.8 1.7-1.7 1.7z"></path>
        <path d="M-335.1 400c-.9 0-1.7-.7-1.7-1.7v-49c0-.9.7-1.7 1.7-1.7.9 0 1.7.7 1.7 1.7v49c0 .9-.8 1.7-1.7 1.7z"></path>
        <path d="M-341.1 364.6a2.6 2.6 0 1 1-5.2 0 2.6 2.6 0 0 1 5.2 0z"></path>
        <path d="M-347.2 358.2a2.6 2.6 0 1 1-5.2 0 2.6 2.6 0 0 1 5.2 0z"></path>
        <path d="M-336.1 377.4h-15.7c-.9 0-1.7-.7-1.7-1.7 0-.9.7-1.7 1.7-1.7h15.7c.9 0 1.7.7 1.7 1.7 0 .9-.8 1.7-1.7 1.7z"></path>
        <path d="M-349.1 392c-.4 0-.8-.1-1.1-.4-.7-.6-.8-1.7-.2-2.4l7-8.3c.6-.7 1.7-.8 2.4-.2.7.6.8 1.7.2 2.4l-7 8.3c-.3.4-.8.6-1.3.6z"></path>
        <path d="M-379 461c-44.1 0-80-35.9-80-80s35.9-80 80-80 80 35.9 80 80-35.9 80-80 80zm0-156.6c-42.2 0-76.6 34.3-76.6 76.6s34.3 76.6 76.6 76.6c42.2 0 76.6-34.3 76.6-76.6s-34.4-76.6-76.6-76.6z"></path>
    </g>
</svg>