<svg 
        class="offer__item-icon" 
        xmlns="http://www.w3.org/2000/svg" 
        viewBox="-459 301 160 160" role="img" 
        preserveAspectRatio="xMidYMid meet"
        alt="offer icon">
          <g>
              <path d="M-379 461c-44.1 0-80-35.9-80-80s35.9-80 80-80 80 35.9 80 80-35.9 80-80 80zm0-156.6c-42.2 0-76.6 34.3-76.6 76.6 0 42.2 34.3 76.6 76.6 76.6 42.2 0 76.6-34.3 76.6-76.6 0-42.2-34.4-76.6-76.6-76.6z"></path>
              <path d="M-350.5 369.5c-.8 0-1.5-.7-1.5-1.5 0-14.6-11.8-26.4-26.4-26.4-15.5 0-27.1 10.5-27.1 24.4 0 .8-.7 1.5-1.5 1.5s-1.5-.7-1.5-1.5c0-15.6 12.9-27.4 30.1-27.4 16.2 0 29.4 13.2 29.4 29.4 0 .8-.7 1.5-1.5 1.5z"></path>
              <path d="M-378 374.9c-13.7 0-24.4-1.7-29.2-4.8-.7-.4-.9-1.4-.5-2.1.4-.7 1.4-.9 2.1-.5 1.6 1 8.3 4.3 27.6 4.3 18.3 0 24.7-3 26.6-4.3.7-.5 1.6-.3 2.1.4s.3 1.6-.4 2.1c-2.6 1.9-9.8 4.9-28.3 4.9z"></path>
              <path d="M-378.7 423.4c-16.9 0-23.8-2.6-29.3-4.6-.6-.2-1-.8-1-1.4v-45.7l.5-5.8c0-.5.3-.9.7-1.1 4.7-3 15.8-4.8 29.6-4.8s24.1 1.8 28.2 4.8c.4.3.6.7.6 1.2v51.4c0 .5-.2.9-.6 1.2-4 3-14.8 4.8-28.7 4.8zm-27.3-7.1c5.4 2 11.9 4.1 27.3 4.1 14.7 0 23.1-1.9 26.4-3.8v-49.8c-2.2-1.3-8.7-3.8-25.8-3.8-14.8 0-23.7 2-27.4 3.9l-.4 4.9-.1 44.5z"></path>
              <path d="M-378.3 408.5c-7.4 0-11.6-.5-17.4-1.2-.8-.1-1.3-.7-1.3-1.5v-22.4c0-.4.2-.8.5-1.1.3-.3.7-.4 1.2-.4 5.7.7 9.9 1.2 17.1 1.2 4.7 0 9.4-.2 12.4-.6.4-.1.8.1 1.2.4.3.3.5.7.5 1.1v22.4c0 .8-.6 1.4-1.3 1.5-3.3.3-8.1.6-12.9.6zm-15.8-4c5.1.6 9.1 1 15.8 1 4.1 0 8.1-.2 11.1-.4v-19.4c-3 .3-7 .4-11.1.4-6.7 0-10.7-.4-15.8-1v19.4z"></path>
          </g>
      </svg>