<svg 
        class="offer__item-icon" 
        xmlns="http://www.w3.org/2000/svg" 
        viewBox="20 20 160 160" 
        role="img" 
        preserveAspectRatio="xMidYMid meet"
        alt="offer icon">
          <g>
              <path d="M100 20c-44.1 0-80 35.9-80 80s35.9 80 80 80 80-35.9 80-80-35.9-80-80-80zm0 156.6c-42.2 0-76.6-34.3-76.6-76.6 0-42.2 34.3-76.6 76.6-76.6 42.2 0 76.6 34.3 76.6 76.6 0 42.2-34.4 76.6-76.6 76.6z"></path>
              <path d="M106.5 118h-21c-.8 0-1.5.7-1.5 1.5v12c0 .8.7 1.5 1.5 1.5h21c.8 0 1.5-.7 1.5-1.5v-12c0-.8-.7-1.5-1.5-1.5zm-1.5 12H87v-9h18v9z"></path>
              <path d="M106.5 97h-21c-.8 0-1.5.7-1.5 1.5v12c0 .8.7 1.5 1.5 1.5h21c.8 0 1.5-.7 1.5-1.5v-12c0-.8-.7-1.5-1.5-1.5zm-1.5 12H87v-9h18v9z"></path>
              <path d="M106.5 76h-21c-.8 0-1.5.7-1.5 1.5v12c0 .8.7 1.5 1.5 1.5h21c.8 0 1.5-.7 1.5-1.5v-12c0-.8-.7-1.5-1.5-1.5zM105 88H87v-9h18v9z"></path>
              <path d="M95.4 71.5c2.9 0 5.2-2.3 5.2-5.2 0-2.9-2.3-5.2-5.2-5.2-2.9 0-5.2 2.3-5.2 5.2 0 2.9 2.3 5.2 5.2 5.2zm0-7.5c1.2 0 2.2 1 2.2 2.2 0 1.2-1 2.2-2.2 2.2-1.2 0-2.2-1-2.2-2.2 0-1.2 1-2.2 2.2-2.2z"></path>
              <path d="M113.6 64.9c-1.4-5.3-6-8.9-11.9-8.9H91.2c-7 0-13.2 5.2-13.2 12.3v64.3c0 7 6.2 12.4 13.2 12.4h10.5c1.7 0 3.3-.3 4.7-.9l4-.9 7-1.6c1.4-.3 2.7-.8 3.9-1.6l12.9-5.5c6.3-3 9-10.6 6-17l-26.6-52.6zm-2.6 67.4c0 5.4-3.9 9.7-9.3 9.7H91.2c-5.4 0-10.2-4.4-10.2-9.7V68.7c0-5.4 4.4-9.7 9.7-9.7h10.6c3.7 0 6.9 2.1 8.6 5.1 0 .1.1.2.1.3l.3.7c.4 1.1.7 2.3.7 3.6v63.6zm11.9 2.1c-1.4 2.2-3.6 3.7-6.1 4.2l-4.7 1.1h-.2c1.5-2.1 2.2-4.5 2.2-7.2V81.1l10.2 46c.5 2.5 0 5.1-1.4 7.3zm10.1-2.6l-6.8 2.9c1.2-2.5 1.6-5.4 1-8.2L116 76.4l21.5 42.4c2.3 4.9.3 10.7-4.5 13z"></path>
          </g>
      </svg>